<mxfile host="app.diagrams.net" modified="2023-09-05T16:10:52.597Z" agent="Mozilla/5.0 (Windows NT 10.0; Win64; x64) AppleWebKit/537.36 (KHTML, like Gecko) Chrome/116.0.0.0 Safari/537.36" version="21.6.8" etag="VutmqhNLz2TsrG5t8ipY" type="github">
  <diagram name="PÃ¡gina-1" id="mF152AyJMgmE0qKOhnqm">
    <mxGraphModel>
      <root>
        <mxCell id="0" />
        <mxCell id="1" parent="0" />
      </root>
    </mxGraphModel>
  </diagram>
</mxfile>
